<svg width="17" height="14" viewBox="0 0 17 14" fill="none" xmlns="http://www.w3.org/2000/svg">
<g clip-path="url(#clip0_128_502)">
<path d="M13.6917 5.94792C12.5482 4.57869 11.4922 3.32188 10.4469 2.05561C10.2601 1.82958 10.0494 1.58697 9.96914 1.31597C9.83384 0.860346 10.0122 0.446145 10.4181 0.186974C10.8767 -0.105334 11.3593 -0.0544466 11.7292 0.330169C12.2094 0.828394 12.638 1.37514 13.0811 1.90768C14.2353 3.29112 15.3872 4.67691 16.5366 6.0639C17.1485 6.80236 17.152 7.22011 16.551 7.94674C15.0627 9.74674 13.5696 11.5444 12.0777 13.342C11.9771 13.4639 11.8693 13.5834 11.7508 13.6864C11.2922 14.084 10.6887 14.1029 10.284 13.7408C9.86018 13.3621 9.79193 12.7953 10.1835 12.3077C11.103 11.1669 12.0513 10.0497 12.9889 8.92307C13.1912 8.67928 13.3924 8.43549 13.6857 8.08046C13.3876 8.08046 13.1852 8.08046 12.9841 8.08046C9.15374 8.08046 5.32461 8.08046 1.49428 8.08046C1.31468 8.08046 1.13268 8.0923 0.956671 8.06745C0.408284 7.98934 0.00238195 7.5349 -0.0012101 7.01893C-0.0036048 6.50295 0.399903 6.04378 0.947092 5.96212C1.1231 5.93609 1.3051 5.94792 1.4847 5.94792C5.29468 5.94674 9.10465 5.94792 12.9146 5.94792C13.1289 5.94792 13.3445 5.94792 13.6917 5.94792Z" fill="#EA4C89"/>
</g>
<defs>
<clipPath id="clip0_128_502">
<rect width="17" height="14" fill="white"/>
</clipPath>
</defs>
</svg>
