<svg width="100" height="25" viewBox="0 0 100 25" fill="none" xmlns="http://www.w3.org/2000/svg">
<g clip-path="url(#clip0_25_1099)">
<path fill-rule="evenodd" clip-rule="evenodd" d="M99.845 19.2855C95.6661 26.3704 89.0481 24.3146 87.0605 22.705C86.2147 23.279 84.7312 24.5369 82.7534 24.3918C78.5412 24.0825 77.0327 18.063 77.0327 18.063C77.0629 18.0871 75.7781 18.5065 75.0835 18.499C75.0746 20.2642 73.5486 24.481 69.4305 24.4272C64.8094 24.3669 63.8699 17.4821 63.8699 17.4821C63.8699 17.4821 63.41 18.1207 61.6615 18.7567C61.7495 17.4005 61.6851 24.2207 56.1465 24.3209C51.7678 24.4002 50.5857 17.3759 50.5857 17.3759C50.5857 17.3759 49.8261 18.1651 48.3541 18.4387C48.4476 17.0604 48.2955 24.3441 42.7561 24.3209C39.0128 24.3053 37.7335 19.9939 37.833 19.3955C37.96 18.6328 36.5679 24.4282 32.9318 24.3379C31.4311 24.2938 30.3125 23.2074 29.6105 21.7589C28.6708 22.8343 27.3065 24.3379 25.7758 24.3379C23.0286 24.3379 21.8173 22.04 22.0225 15.4768C22.0399 14.6984 21.9837 14.3922 21.21 14.2757C20.7455 14.1983 20.2698 14.0516 19.7667 13.9742C19.6053 14.5125 18.2371 24.1627 13.5325 24.3458C11.9542 24.4074 11.0911 23.0402 10.3824 22.0253C9.29601 23.4626 7.86185 24.3918 5.81878 24.3918C2.35797 24.3918 0 21.594 0 18.1427C0 14.6915 2.35797 11.894 5.81878 11.894C6.43068 11.894 6.60246 11.9817 7.16148 12.1448C6.01184 1.67769 8.72681 0.0418245 11.1019 0.0418245C13.382 0.0418245 17.2774 5.334 11.7962 18.7577C13.0131 22.7617 15.6366 22.5352 16.8973 14.2929C17.1537 12.6175 16.4677 10.3566 17.5349 10.041C19.4855 9.46432 19.6925 11.1946 20.6071 11.4828C21.5742 11.7875 22.1386 11.7578 23.0671 11.9517C24.6535 12.2615 25.2727 13.1137 25.0793 15.0118C24.8472 17.4136 24.4412 20.9093 25.6792 21.3352C26.572 21.6448 28.202 19.7933 28.488 18.7803C28.774 17.7673 28.8336 17.4205 28.8591 16.6776C28.8978 15.0895 28.9462 13.9254 29.2171 12.7244C29.333 12.2597 29.4651 11.952 29.9908 11.9309C30.4235 11.9199 31.2147 11.7896 31.563 12.0606C32.0272 12.4095 31.9693 12.7634 31.9159 13.6949C31.376 26.9756 35.5312 20.3457 36.7702 15.0372C36.3292 9.03451 36.632 0.151745 40.3936 0.00276463C42.3499 -0.0747134 43.2147 1.49252 43.3099 2.6623C43.5789 5.96622 42.0717 11.4391 40.0895 15.1196C38.9567 22.6294 45.0428 24.1144 46.016 18.12C44.4236 17.3629 42.7028 14.2984 44.1031 12.805C44.889 11.9669 48.1599 13.1709 48.2134 15.797C49.8179 15.3678 50.0321 14.462 50.0544 14.6121C49.6132 8.60938 50.0223 0.151822 53.7842 0.00284133C55.7402 -0.0746368 56.605 1.49259 56.7001 2.66239C56.9692 5.96629 55.462 11.4392 53.48 15.1197C52.3469 22.6295 58.4333 24.1144 59.4064 18.1201C58.2274 17.8926 55.7386 14.6331 57.1746 12.8051C57.942 11.8282 61.2008 13.8597 61.5658 15.884C63.1072 15.4477 63.3165 14.5706 63.3385 14.7183C62.8974 8.71575 63.3065 0.258204 67.0682 0.109223C69.0244 0.0317452 69.8892 1.59898 69.9843 2.76877C70.2533 6.07268 68.746 11.5456 66.7639 15.2261C65.631 22.736 71.7172 24.2207 72.6905 18.2264C71.0704 17.9566 68.7678 14.515 70.621 12.7544C71.3615 12.0509 74.1905 13.877 74.8527 15.9602C75.7729 15.9248 76.3456 15.6076 76.4684 15.5755C74.9995 8.52869 76.093 0.0735238 80.1398 0.00294464C82.3269 -0.035166 84.4653 1.18541 83.5267 7.88952C82.6308 14.286 79.4104 16.9704 79.4178 17.0115C79.6053 17.7778 81.2577 24.1909 85.4191 20.8072C85.2036 20.3194 84.988 19.821 84.8675 19.2173C84.1778 15.7009 85.5325 11.7291 89.2148 11.0871C91.3245 10.7194 93.3118 11.7465 93.626 14.0621C94.143 17.8511 90.7216 20.5953 89.4205 21.1905C88.8378 20.8595 94.7029 24.621 98.1836 17.0828C98.3854 16.6524 98.6288 16.6889 98.9441 16.9107C99.1667 17.0674 100.435 18.2686 99.845 19.2855ZM8.33622 17.2118C8.1591 16.6822 7.79563 15.5155 7.66712 15.01C6.95928 14.3945 6.45404 14.2945 5.54547 14.2945C3.52631 14.2945 2.33789 16.1612 2.33789 18.1743C2.33789 20.1873 3.63259 22.0544 5.65174 22.0544C7.40158 22.0544 8.73335 20.8646 9.13967 19.1804C8.85527 18.5239 8.57317 17.9204 8.33622 17.2118ZM11.0524 2.81254C9.63359 2.81254 9.15231 6.19701 9.24572 9.08429C9.32832 11.637 10.0416 13.8844 10.4117 14.8912C10.5056 15.0175 10.4881 14.9354 10.572 15.0693C13.0354 9.67175 12.0136 2.81254 11.0524 2.81254ZM40.5962 2.91884C38.7625 2.70855 38.7743 10.3472 39.002 12.0606C39.9543 10.5372 41.6087 3.32906 40.5962 2.91884ZM53.9865 2.91884C52.1528 2.70855 52.1646 10.3472 52.3923 12.0606C53.3446 10.5372 54.9991 3.32906 53.9865 2.91884ZM67.2706 3.02512C65.4369 2.81482 65.4486 10.4535 65.6765 12.1671C66.6286 10.6434 68.2831 3.43531 67.2706 3.02512ZM80.3421 2.4717C77.4851 3.04542 78.1504 12.571 78.5843 14.2417C81.9497 9.61953 82.0189 2.29807 80.3421 2.4717ZM91.0493 14.3755C90.9042 13.7682 90.1778 13.4435 89.6765 13.5235C88.242 13.7195 86.8507 15.506 87.3893 18.226C87.5091 18.8319 87.8091 19.3894 87.8043 19.3709C91.0147 17.2172 91.2875 15.5199 91.0493 14.3755ZM30.5533 9.82839C30.1433 9.82848 29.7425 9.70697 29.4016 9.47924C29.0606 9.25151 28.7949 8.92778 28.6379 8.54901C28.4809 8.17025 28.4399 7.75344 28.5198 7.35131C28.5998 6.94919 28.7972 6.5798 29.0871 6.28986C29.377 5.99994 29.7464 5.80249 30.1484 5.72249C30.5505 5.64249 30.9674 5.68353 31.3461 5.84043C31.725 5.99733 32.0487 6.26304 32.2765 6.60395C32.5043 6.94485 32.6258 7.34566 32.6258 7.75565C32.6258 8.02783 32.5722 8.29735 32.468 8.54881C32.364 8.80028 32.2113 9.02878 32.0189 9.22125C31.8264 9.41373 31.5979 9.56641 31.3465 9.67058C31.095 9.77476 30.8255 9.82838 30.5533 9.82839Z" fill="#D85888"/>
</g>
<defs>
<clipPath id="clip0_25_1099">
<rect width="100" height="24.4277" fill="white"/>
</clipPath>
</defs>
</svg>
