<svg width="96" height="24" viewBox="0 0 96 24" fill="none" xmlns="http://www.w3.org/2000/svg">
<path fill-rule="evenodd" clip-rule="evenodd" d="M79.876 15.4284C76.5329 21.0963 71.2385 19.4517 69.6484 18.164C68.9718 18.6232 67.785 19.6295 66.2028 19.5134C62.833 19.266 61.6262 14.4504 61.6262 14.4504C61.6503 14.4697 60.6225 14.8052 60.0668 14.7992C60.0597 16.2113 58.8389 19.5848 55.5444 19.5418C51.8475 19.4935 51.0959 13.9857 51.0959 13.9857C51.0959 13.9857 50.728 14.4966 49.3292 15.0053C49.3996 13.9204 49.3481 19.3766 44.9172 19.4568C41.4143 19.5202 40.4686 13.9008 40.4686 13.9008C40.4686 13.9008 39.8609 14.5321 38.6833 14.751C38.7581 13.6483 38.6364 19.4753 34.2049 19.4568C31.2103 19.4443 30.1868 15.9951 30.2664 15.5164C30.368 14.9063 29.2543 19.5426 26.3454 19.4703C25.1449 19.435 24.25 18.5659 23.6884 17.4071C22.9367 18.2674 21.8452 19.4703 20.6207 19.4703C18.4229 19.4703 17.4538 17.632 17.618 12.3814C17.6319 11.7588 17.587 11.5138 16.968 11.4206C16.5964 11.3587 16.2158 11.2413 15.8133 11.1793C15.6843 11.61 14.5897 19.3302 10.826 19.4767C9.56333 19.5259 8.87292 18.4322 8.30596 17.6203C7.43681 18.7701 6.28948 19.5134 4.65503 19.5134C1.88638 19.5134 0 17.2752 0 14.5142C0 11.7532 1.88638 9.51517 4.65503 9.51517C5.14454 9.51517 5.28197 9.58533 5.72918 9.71583C4.80948 1.34215 6.98145 0.0334596 8.8815 0.0334596C10.7056 0.0334596 13.8219 4.2672 9.437 15.0062C10.4105 18.2093 12.5093 18.0282 13.5178 11.4343C13.723 10.094 13.1742 8.28525 14.0279 8.03281C15.5884 7.57146 15.754 8.95567 16.4857 9.18625C17.2593 9.43 17.7109 9.40625 18.4537 9.56133C19.7228 9.80917 20.2182 10.491 20.0634 12.0094C19.8778 13.9309 19.553 16.7274 20.5433 17.0682C21.2576 17.3158 22.5616 15.8347 22.7904 15.0243C23.0192 14.2138 23.0669 13.9364 23.0873 13.3421C23.1183 12.0716 23.157 11.1403 23.3737 10.1795C23.4664 9.80775 23.5721 9.56158 23.9927 9.54475C24.3388 9.53592 24.9718 9.43167 25.2504 9.6485C25.6218 9.92758 25.5754 10.2108 25.5328 10.9559C25.1008 21.5805 28.425 16.2766 29.4162 12.0298C29.0633 7.22761 29.3056 0.121396 32.3149 0.0022117C33.8799 -0.0597708 34.5718 1.19402 34.6479 2.12984C34.8631 4.77298 33.6573 9.15125 32.0716 12.0957C31.1653 18.1035 36.0343 19.2915 36.8128 14.496C35.5389 13.8903 34.1623 11.4388 35.2825 10.244C35.9112 9.5735 38.5279 10.5368 38.5708 12.6376C39.8543 12.2943 40.0257 11.5696 40.0435 11.6897C39.6906 6.8875 40.0178 0.121457 43.0273 0.00227306C44.5922 -0.0597094 45.284 1.19408 45.3601 2.12991C45.5753 4.77303 44.3696 9.15133 42.784 12.0958C41.8775 18.1036 46.7467 19.2915 47.5251 14.4961C46.5819 14.3141 44.5909 11.7065 45.7397 10.2441C46.3536 9.46258 48.9607 11.0878 49.2527 12.7072C50.4858 12.3582 50.6532 11.6565 50.6708 11.7747C50.3179 6.9726 50.6452 0.206563 53.6546 0.0873783C55.2195 0.0253962 55.9113 1.27918 55.9874 2.21502C56.2027 4.85814 54.9968 9.2365 53.4111 12.1809C52.5048 18.1888 57.3738 19.3766 58.1524 14.5811C56.8563 14.3653 55.0143 11.612 56.4968 10.2035C57.0892 9.64075 59.3524 11.1016 59.8822 12.7682C60.6183 12.7398 61.0765 12.4861 61.1748 12.4604C59.9996 6.82295 60.8744 0.0588191 64.1118 0.00235571C65.8615 -0.0281328 67.5723 0.948325 66.8213 6.31162C66.1047 11.4288 63.5283 13.5763 63.5343 13.6092C63.6843 14.2223 65.0062 19.3528 68.3353 16.6458C68.1629 16.2555 67.9904 15.8568 67.894 15.3738C67.3423 12.5608 68.426 9.38325 71.3718 8.86967C73.0596 8.5755 74.6494 9.39717 74.9008 11.2497C75.3144 14.2809 72.5773 16.4763 71.5364 16.9524C71.0703 16.6876 75.7623 19.6968 78.5469 13.6663C78.7083 13.3219 78.9031 13.3511 79.1553 13.5286C79.3333 13.6539 80.3479 14.6149 79.876 15.4284ZM6.66898 13.7694C6.52728 13.3458 6.23651 12.4124 6.1337 12.008C5.56743 11.5156 5.16323 11.4356 4.43638 11.4356C2.82105 11.4356 1.87031 12.929 1.87031 14.5394C1.87031 16.1498 2.90608 17.6435 4.52139 17.6435C5.92127 17.6435 6.98668 16.6917 7.31173 15.3443C7.08422 14.8191 6.85853 14.3363 6.66898 13.7694ZM8.84192 2.25003C7.70688 2.25003 7.32185 4.95761 7.39658 7.26743C7.46266 9.30958 8.0333 11.1075 8.32933 11.913C8.4045 12.014 8.3905 11.9483 8.45758 12.0554C10.4283 7.7374 9.61092 2.25003 8.84192 2.25003ZM32.477 2.33508C31.01 2.16684 31.0194 8.27778 31.2016 9.6485C31.9634 8.42975 33.287 2.66325 32.477 2.33508ZM43.1892 2.33508C41.7223 2.16684 41.7317 8.27778 41.9138 9.6485C42.6757 8.42975 43.9993 2.66325 43.1892 2.33508ZM53.8165 2.4201C52.3495 2.25186 52.3589 8.36283 52.5412 9.73367C53.3029 8.51475 54.6265 2.74825 53.8165 2.4201ZM64.2737 1.97736C61.9881 2.43633 62.5203 10.0568 62.8674 11.3933C65.5598 7.69563 65.6151 1.83846 64.2737 1.97736ZM72.8394 11.5004C72.7233 11.0146 72.1423 10.7548 71.7412 10.8188C70.5936 10.9756 69.4806 12.4048 69.9114 14.5808C70.0073 15.0655 70.2473 15.5115 70.2434 15.4968C72.8118 13.7738 73.03 12.4159 72.8394 11.5004ZM24.4427 7.86272C24.1147 7.86278 23.794 7.76558 23.5213 7.58339C23.2485 7.40121 23.0359 7.14223 22.9103 6.83921C22.7848 6.5362 22.7519 6.20275 22.8158 5.88105C22.8798 5.55935 23.0378 5.26384 23.2697 5.03189C23.5016 4.79995 23.7971 4.64199 24.1188 4.57799C24.4404 4.51399 24.7739 4.54683 25.0769 4.67234C25.38 4.79787 25.639 5.01043 25.8212 5.28316C26.0034 5.55588 26.1007 5.87653 26.1007 6.20452C26.1007 6.42227 26.0578 6.63788 25.9744 6.83905C25.8912 7.04022 25.769 7.22303 25.6151 7.377C25.4611 7.53098 25.2783 7.65313 25.0772 7.73647C24.876 7.81981 24.6604 7.86271 24.4427 7.86272Z" fill="black"/>
</svg>
