<svg width="20" height="20" viewBox="0 0 20 20" fill="none" xmlns="http://www.w3.org/2000/svg">
<path d="M12.3566 10L16.1783 6.17833C16.8291 5.5275 16.8291 4.4725 16.1783 3.82167C15.5283 3.17083 14.4716 3.17083 13.8216 3.82167L9.99995 7.64333L6.17829 3.82167C5.52829 3.17083 4.47162 3.17083 3.82162 3.82167C3.17079 4.4725 3.17079 5.5275 3.82162 6.17833L7.64329 10L3.82162 13.8217C3.17079 14.4725 3.17079 15.5275 3.82162 16.1783C4.14662 16.5042 4.57329 16.6667 4.99995 16.6667C5.42662 16.6667 5.85329 16.5042 6.17829 16.1783L9.99995 12.3567L13.8216 16.1783C14.1466 16.5042 14.5733 16.6667 15 16.6667C15.4266 16.6667 15.8533 16.5042 16.1783 16.1783C16.8291 15.5275 16.8291 14.4725 16.1783 13.8217L12.3566 10Z" fill="#767676"/>
</svg>
