<svg width="158" height="203" viewBox="0 0 158 203" fill="none" xmlns="http://www.w3.org/2000/svg">
<g clip-path="url(#clip0_108_631)">
<path d="M26.5002 189.871C17.7117 184.165 14.812 175.049 17.8014 162.522C17.8878 162.136 18.0182 161.76 18.19 161.402C16.8181 159.833 15.597 158.137 14.543 156.339C12.53 153.173 11.2074 149.618 10.6615 145.907C10.1155 142.196 10.3584 138.412 11.3743 134.801C11.7211 133.613 12.1712 132.459 12.7195 131.35C13.0782 130.559 13.2875 130.066 13.3772 129.857L13.4519 129.424C11.1575 127.184 9.18115 124.641 7.57791 121.866V121.866C3.1637 114.467 1.92811 107.417 3.87117 100.716C5.30458 95.1509 8.51629 90.2056 13.0185 86.6309C18.1501 82.5582 23.1672 81.2886 28.0696 82.8221H28.3387C30.1753 76.6439 33.6027 71.0557 38.2781 66.6162V66.6162C44.6454 60.7511 51.0176 58.7995 57.3948 60.7611C59.5856 61.3072 61.6542 62.2597 63.493 63.5691C64.0111 56.9573 64.7684 50.2509 65.7648 43.4499C67.6581 29.4097 69.651 20.0645 71.7435 15.4143V15.3397C73.0505 12.3869 75.0461 9.78981 77.5632 7.76555C80.0803 5.74128 83.0458 4.3487 86.2117 3.70424V3.70424C93.0772 1.78243 99.7583 3.69428 106.255 9.4398C112.822 14.4186 114.476 25.3072 111.217 42.1056C111.217 42.2998 111.128 42.4939 111.098 42.6881C117.744 32.153 124.096 26.3876 130.155 25.3918C138.704 23.4003 144.857 24.4807 148.614 28.633C152.309 32.0505 154.533 36.7682 154.816 41.7919V41.7173C155.175 46.5711 154.576 51.4481 153.053 56.0711V56.0711C151.737 60.7512 146.755 69.474 138.106 82.2396C132.469 90.7664 126.304 98.9326 119.647 106.69C122.702 109.768 125.354 113.221 127.539 116.967C133.896 127.522 135.68 137.733 132.89 147.601C131.176 154.641 125.506 161.611 115.881 168.512C110.37 172.674 102.857 175.393 93.3412 176.667C93.8734 178.943 93.7909 181.319 93.1021 183.553C91.2687 191.519 84.8616 196.597 73.8808 198.788C66.0846 200.258 58.0968 200.409 50.2503 199.236C41.711 198.008 33.5776 194.801 26.5002 189.871V189.871ZM27.2476 106.944C26.3555 102.891 26.0037 98.7375 26.2013 94.592C25.812 94.2353 25.4659 93.8343 25.17 93.397C24.1952 93.3039 23.2118 93.4182 22.2843 93.7323C21.3569 94.0464 20.5066 94.5531 19.7892 95.2193C17.1201 97.353 15.2333 100.31 14.4234 103.628C13.427 107.611 14.269 111.814 16.9494 116.235C19.3707 120.307 22.1309 122.857 25.2298 123.882C26.9224 124.393 28.7341 124.351 30.4013 123.763V123.763C30.843 123.578 31.2391 123.299 31.5618 122.946C31.8845 122.592 32.1261 122.173 32.2696 121.716C32.3892 121.283 32.4639 120.984 32.5088 120.835C32.5172 120.796 32.5172 120.755 32.5088 120.716V120.865C32.3898 120.223 32.3898 119.565 32.5088 118.923C29.8715 115.379 28.0727 111.283 27.2476 106.944V106.944ZM71.7435 188.034C77.5726 186.889 81.1598 184.439 82.505 180.685C82.6092 179.583 82.4291 178.472 81.9819 177.459C79.0822 177.459 76.0032 177.459 72.8944 177.295C71.8091 177.25 70.7619 176.882 69.8869 176.239C69.0119 175.596 68.3489 174.707 67.9829 173.685C67.6168 172.663 67.5644 171.555 67.8323 170.503C68.1002 169.451 68.6762 168.503 69.4865 167.78C70.0063 167.278 70.6228 166.887 71.2986 166.63C71.9743 166.373 72.6952 166.256 73.4175 166.286C89.8089 167.093 101.821 164.877 109.454 159.64C116.429 154.561 120.703 149.583 122.278 144.703C124.081 137.614 122.686 130.245 118.093 122.598C115.757 118.405 112.564 114.751 108.721 111.873L108.617 111.799C107.368 111.052 106.026 110.475 104.626 110.081C102.542 109.438 100.313 109.438 98.2288 110.081C97.5162 110.371 96.8903 110.839 96.4113 111.441C95.9323 112.043 95.6162 112.757 95.4935 113.516C94.9088 116.148 95.3639 118.904 96.764 121.209C99.1853 125.465 100.919 128.453 101.95 130.484C102.456 130.863 102.891 131.329 103.236 131.858C103.788 132.706 104.094 133.69 104.119 134.701C104.145 135.712 103.89 136.71 103.382 137.584C102.874 138.459 102.133 139.175 101.242 139.654C100.35 140.133 99.3436 140.356 98.3334 140.297C96.3306 140.297 93.8494 139.371 90.8601 137.31C90.8332 137.268 90.7975 137.232 90.7555 137.205C89.7967 136.466 88.7591 135.835 87.6616 135.323C83.8307 134.584 79.8643 135.059 76.3171 136.683C72.431 138.176 69.8453 140.297 68.5748 142.792C68.3022 143.452 67.896 144.049 67.3816 144.545C66.8672 145.041 66.2557 145.426 65.5855 145.674C64.9168 145.959 64.1974 146.106 63.4706 146.106C62.7437 146.106 62.0243 145.959 61.3556 145.674C60.6975 145.397 60.1025 144.99 59.6067 144.476C59.1108 143.963 58.7244 143.354 58.4709 142.687C58.186 142.019 58.0392 141.3 58.0392 140.574C58.0392 139.847 58.186 139.128 58.4709 138.46C60.4638 133.412 65.0474 129.453 72.2218 126.586C76.5592 124.687 81.2704 123.793 86.0025 123.972C84.0531 119.761 83.6767 114.993 84.9413 110.529C85.5124 108.142 86.6479 105.927 88.2524 104.068C89.857 102.21 91.8839 100.764 94.1633 99.8495H94.253C98.5021 98.2645 103.161 98.1541 107.481 99.5359C108.494 99.8062 109.492 100.13 110.47 100.507C117.208 92.7902 123.415 84.6262 129.049 76.0709C136.791 64.6794 141.315 56.9523 142.62 52.8897C143.701 49.5982 144.137 46.1296 143.905 42.6732V42.5985C143.789 40.264 142.784 38.0624 141.095 36.4447C139.312 35.2498 136.492 35.1005 132.636 35.9966C127.823 37.5898 122.268 44.2614 115.97 56.0113C108.597 69.8922 101.094 82.837 93.4608 94.8459C92.9099 95.7155 92.1233 96.4109 91.1924 96.8514C90.2616 97.2919 89.2248 97.4593 88.2025 97.3341C87.1802 97.209 86.2144 96.7964 85.4175 96.1444C84.6206 95.4924 84.0253 94.6277 83.7007 93.651C83.2053 92.3717 83.2375 90.9484 83.7904 89.6928C92.1605 70.2457 97.7106 53.6813 100.441 39.9996C102.633 28.638 102.135 21.1698 98.9462 17.595C95.6281 14.6078 92.2452 13.4975 88.7975 14.2642C87.2631 14.5628 85.8195 15.2152 84.5818 16.1694C83.3441 17.1236 82.3463 18.3534 81.668 19.7608C79.9142 23.9231 78.1854 32.3024 76.4815 44.8987C74.7526 57.475 73.6899 70.1338 73.2979 82.8221C73.3668 84.0178 73.3318 85.2172 73.1933 86.4068C73.1867 86.5013 73.1867 86.5961 73.1933 86.6906C73.1036 87.1686 73.0289 87.6914 72.9392 88.1843C72.8251 88.8921 72.5716 89.5703 72.1935 90.1796C71.8153 90.7889 71.32 91.3172 70.7362 91.7339C70.1524 92.1507 69.4917 92.4475 68.7923 92.6074C68.0929 92.7672 67.3687 92.7869 66.6616 92.6652C65.9495 92.5633 65.266 92.3157 64.6539 91.9379C64.0419 91.5601 63.5144 91.0603 63.1044 90.4695C62.6827 89.8872 62.382 89.2264 62.2203 88.526C62.0586 87.8256 62.039 87.1 62.1627 86.3919C62.1627 85.9737 62.2972 85.5853 62.357 85.2119C62.357 85.1223 62.357 85.0177 62.357 84.9281C62.357 84.48 62.357 84.0319 62.357 83.5839C62.3489 83.4446 62.3489 83.3049 62.357 83.1656C62.1739 80.973 61.5647 78.8371 60.5634 76.8774V76.8774C59.9853 75.5811 59.1492 74.416 58.1059 73.453C57.0626 72.4901 55.8341 71.7495 54.4951 71.2763C51.6404 70.7386 48.7258 71.8588 45.7365 74.6071C42.1672 77.9936 39.624 82.3157 38.3977 87.079C36.8128 92.7777 36.6486 98.7777 37.9194 104.554V104.554C39.16 110.066 41.6859 113.516 45.4824 114.786C46.1113 115.019 46.7955 115.06 47.4476 114.903C48.0998 114.746 48.6904 114.398 49.1443 113.905V113.905C50.686 111.966 51.7692 109.704 52.3129 107.288C52.4209 105.038 52.3208 102.783 52.014 100.552C52.0067 100.512 52.0067 100.472 52.014 100.432C51.81 98.339 51.4856 96.2594 51.0425 94.2036C50.6012 93.2326 50.4529 92.154 50.6158 91.1C50.7787 90.0461 51.2457 89.0625 51.9596 88.2698C52.6736 87.4771 53.6034 86.9097 54.6351 86.6372C55.6669 86.3646 56.7558 86.3988 57.7684 86.7354C58.4506 86.9683 59.0773 87.3392 59.6096 87.8249C60.142 88.3106 60.5684 88.9007 60.8624 89.5584C61.5499 90.6836 62.2275 93.9347 62.8951 99.3118C62.8866 99.3512 62.8866 99.3919 62.8951 99.4313C63.4481 105.018 63.4481 108.617 62.8951 110.245C61.9597 114.407 59.9793 118.262 57.1407 121.448V121.448C55.3831 123.411 53.095 124.825 50.552 125.519C48.009 126.213 45.3194 126.158 42.8069 125.361C42.2081 127.259 41.1949 129.001 39.8405 130.46C38.486 131.92 36.8242 133.06 34.9749 133.8V133.8C31.308 135.371 27.2213 135.676 23.3615 134.666C23.212 135.025 23.0326 135.443 22.8085 135.921C22.5297 136.481 22.29 137.06 22.091 137.653C21.4702 139.844 21.3117 142.14 21.6256 144.394C21.9395 146.649 22.7189 148.815 23.9145 150.753C26.0274 154.615 29.5167 157.542 33.6895 158.953C34.3795 159.169 35.0185 159.523 35.5682 159.993C36.1178 160.463 36.5668 161.039 36.8881 161.686C37.2298 162.317 37.4367 163.011 37.4959 163.726C37.5551 164.441 37.4652 165.16 37.2319 165.838C37.0161 166.524 36.6667 167.161 36.2037 167.711C35.7408 168.262 35.1735 168.715 34.5344 169.046C33.8954 169.376 33.1972 169.577 32.4802 169.636C31.7632 169.696 31.0414 169.613 30.3565 169.393C29.4945 169.127 28.6464 168.818 27.8155 168.467C27.2476 173.904 28.8469 178.036 32.6134 180.864C38.3372 184.79 44.8887 187.345 51.7599 188.332C58.3915 189.343 65.1452 189.242 71.7435 188.034V188.034Z" fill="black"/>
<path d="M60.9819 203C57.2508 202.995 53.5248 202.725 49.8318 202.193C40.8522 200.887 32.298 197.518 24.8412 192.35C14.9465 185.958 11.6284 175.756 14.8419 162.044C13.7851 160.713 12.8213 159.311 11.9572 157.847C9.73033 154.331 8.26931 150.386 7.66929 146.269C7.06926 142.151 7.34368 137.954 8.47468 133.949C8.86206 132.615 9.36207 131.316 9.96934 130.066C8.10194 127.992 6.44939 125.735 5.03697 123.329C0.179343 115.294 -1.16585 107.392 1.0014 99.8793C2.60906 93.71 6.17531 88.228 11.1651 84.2559C16.217 80.238 21.3287 78.595 26.3807 79.3418C28.499 73.7126 31.8666 68.6366 36.2304 64.4951L36.5891 64.1814C43.6589 57.7887 50.9378 55.6677 58.2019 57.8932C59.1292 58.1192 60.0385 58.4137 60.9221 58.7745C61.4004 53.6364 61.9983 48.319 62.7157 43.0465C64.6887 28.5881 66.7214 19.1483 68.9335 14.1894L69.2474 13.5771C70.7798 10.3385 73.0434 7.49959 75.86 5.2836C78.6767 3.0676 81.9695 1.53503 85.4793 0.806467V0.806467C93.3263 -1.34437 100.949 0.791531 108.153 7.13948C113.997 11.6204 116.493 19.6561 115.627 31.4559C120.2 26.3178 124.699 23.3604 129.228 22.4941H129.467C139.048 20.2685 146.207 21.6277 150.736 26.5567C154.9 30.4585 157.417 35.8003 157.776 41.4931V41.4931C158.162 46.7392 157.523 52.0103 155.893 57.012C154.398 62.0455 149.436 70.8878 140.513 84.0468C135.306 91.8524 129.688 99.376 123.683 106.586C126.072 109.329 128.198 112.289 130.035 115.428C136.806 126.675 138.704 137.833 135.7 148.408C133.846 156.01 127.733 163.643 117.57 170.991C112.293 174.964 105.239 177.728 96.6444 179.191C96.7232 180.935 96.4956 182.679 95.9718 184.344C93.8195 193.471 86.5704 199.281 74.4488 201.73C70.0101 202.578 65.5009 203.003 60.9819 203V203Z" fill="white"/>
<path d="M26.5002 189.871C17.7117 184.165 14.812 175.049 17.8014 162.522C17.8878 162.136 18.0182 161.76 18.19 161.402C16.8181 159.833 15.597 158.137 14.543 156.339C12.53 153.173 11.2074 149.618 10.6615 145.907C10.1155 142.196 10.3584 138.412 11.3743 134.801C11.7211 133.613 12.1712 132.459 12.7195 131.35C13.0782 130.559 13.2875 130.066 13.3772 129.857L13.4519 129.424C11.1575 127.184 9.18115 124.641 7.57791 121.866V121.866C3.1637 114.467 1.92811 107.417 3.87117 100.716C5.30458 95.1509 8.51629 90.2056 13.0185 86.6309C18.1501 82.5582 23.1672 81.2886 28.0696 82.8221H28.3387C30.1753 76.6439 33.6027 71.0557 38.2781 66.6162V66.6162C44.6454 60.7511 51.0176 58.7995 57.3948 60.7611C59.5856 61.3072 61.6542 62.2597 63.493 63.5691C64.0111 56.9573 64.7684 50.2509 65.7648 43.4499C67.6581 29.4097 69.651 20.0645 71.7435 15.4143V15.3397C73.0505 12.3869 75.0461 9.78981 77.5632 7.76555C80.0803 5.74128 83.0458 4.3487 86.2117 3.70424V3.70424C93.0772 1.78243 99.7583 3.69428 106.255 9.4398C112.822 14.4186 114.476 25.3072 111.217 42.1056C111.217 42.2998 111.128 42.4939 111.098 42.6881C117.744 32.153 124.096 26.3876 130.155 25.3918C138.704 23.4003 144.857 24.4807 148.614 28.633C152.309 32.0505 154.533 36.7682 154.816 41.7919V41.7173C155.175 46.5711 154.576 51.4481 153.053 56.0711V56.0711C151.737 60.7512 146.755 69.474 138.106 82.2396C132.469 90.7664 126.304 98.9326 119.647 106.69C122.702 109.768 125.354 113.221 127.539 116.967C133.896 127.522 135.68 137.733 132.89 147.601C131.176 154.641 125.506 161.611 115.881 168.512C110.37 172.674 102.857 175.393 93.3412 176.667C93.8734 178.943 93.7909 181.319 93.1021 183.553C91.2687 191.519 84.8616 196.597 73.8808 198.788C66.0846 200.258 58.0968 200.409 50.2503 199.236C41.711 198.008 33.5776 194.801 26.5002 189.871V189.871ZM27.2476 106.944C26.3555 102.891 26.0037 98.7375 26.2013 94.592C25.812 94.2353 25.4659 93.8343 25.17 93.397C24.1952 93.3039 23.2118 93.4182 22.2843 93.7323C21.3569 94.0464 20.5066 94.5531 19.7892 95.2193C17.1201 97.353 15.2333 100.31 14.4234 103.628C13.427 107.611 14.269 111.814 16.9494 116.235C19.3707 120.307 22.1309 122.857 25.2298 123.882C26.9224 124.393 28.7341 124.351 30.4013 123.763V123.763C30.843 123.578 31.2391 123.299 31.5618 122.946C31.8845 122.592 32.1261 122.173 32.2696 121.716C32.3892 121.283 32.4639 120.984 32.5088 120.835C32.5172 120.796 32.5172 120.755 32.5088 120.716V120.865C32.3898 120.223 32.3898 119.565 32.5088 118.923C29.8715 115.379 28.0727 111.283 27.2476 106.944V106.944ZM71.7435 188.034C77.5726 186.889 81.1598 184.439 82.505 180.685C82.6092 179.583 82.4291 178.472 81.9819 177.459C79.0822 177.459 76.0032 177.459 72.8944 177.295C71.8091 177.25 70.7619 176.882 69.8869 176.239C69.0119 175.596 68.3489 174.707 67.9829 173.685C67.6168 172.663 67.5644 171.555 67.8323 170.503C68.1002 169.451 68.6762 168.503 69.4865 167.78C70.0063 167.278 70.6228 166.887 71.2986 166.63C71.9743 166.373 72.6952 166.256 73.4175 166.286C89.8089 167.093 101.821 164.877 109.454 159.64C116.429 154.561 120.703 149.583 122.278 144.703C124.081 137.614 122.686 130.245 118.093 122.598C115.757 118.405 112.564 114.751 108.721 111.873L108.617 111.799C107.368 111.052 106.026 110.475 104.626 110.081C102.542 109.438 100.313 109.438 98.2288 110.081C97.5162 110.371 96.8903 110.839 96.4113 111.441C95.9323 112.043 95.6162 112.757 95.4935 113.516C94.9088 116.148 95.3639 118.904 96.764 121.209C99.1853 125.465 100.919 128.453 101.95 130.484C102.456 130.863 102.891 131.329 103.236 131.858C103.788 132.706 104.094 133.69 104.119 134.701C104.145 135.712 103.89 136.71 103.382 137.584C102.874 138.459 102.133 139.175 101.242 139.654C100.35 140.133 99.3436 140.356 98.3334 140.297C96.3306 140.297 93.8494 139.371 90.8601 137.31C90.8332 137.268 90.7975 137.232 90.7555 137.205C89.7967 136.466 88.7591 135.835 87.6616 135.323C83.8307 134.584 79.8643 135.059 76.3171 136.683C72.431 138.176 69.8453 140.297 68.5748 142.792C68.3022 143.452 67.896 144.049 67.3816 144.545C66.8672 145.041 66.2557 145.426 65.5855 145.674C64.9168 145.959 64.1974 146.106 63.4706 146.106C62.7437 146.106 62.0243 145.959 61.3556 145.674C60.6975 145.397 60.1025 144.99 59.6067 144.476C59.1108 143.963 58.7244 143.354 58.4709 142.687C58.186 142.019 58.0392 141.3 58.0392 140.574C58.0392 139.847 58.186 139.128 58.4709 138.46C60.4638 133.412 65.0474 129.453 72.2218 126.586C76.5592 124.687 81.2704 123.793 86.0025 123.972C84.0531 119.761 83.6767 114.993 84.9413 110.529C85.5124 108.142 86.6479 105.927 88.2524 104.068C89.857 102.21 91.8839 100.764 94.1633 99.8495H94.253C98.5021 98.2645 103.161 98.1541 107.481 99.5359C108.494 99.8062 109.492 100.13 110.47 100.507C117.208 92.7902 123.415 84.6262 129.049 76.0709C136.791 64.6794 141.315 56.9523 142.62 52.8897C143.701 49.5982 144.137 46.1296 143.905 42.6732V42.5985C143.789 40.264 142.784 38.0624 141.095 36.4447C139.312 35.2498 136.492 35.1005 132.636 35.9966C127.823 37.5898 122.268 44.2614 115.97 56.0113C108.597 69.8922 101.094 82.837 93.4608 94.8459C92.9099 95.7155 92.1233 96.4109 91.1924 96.8514C90.2616 97.2919 89.2248 97.4593 88.2025 97.3341C87.1802 97.209 86.2144 96.7964 85.4175 96.1444C84.6206 95.4924 84.0253 94.6277 83.7007 93.651C83.2053 92.3717 83.2375 90.9484 83.7904 89.6928C92.1605 70.2457 97.7106 53.6813 100.441 39.9996C102.633 28.638 102.135 21.1698 98.9462 17.595C95.6281 14.6078 92.2452 13.4975 88.7975 14.2642C87.2631 14.5628 85.8195 15.2152 84.5818 16.1694C83.3441 17.1236 82.3463 18.3534 81.668 19.7608C79.9142 23.9231 78.1854 32.3024 76.4815 44.8987C74.7526 57.475 73.6899 70.1338 73.2979 82.8221C73.3668 84.0178 73.3318 85.2172 73.1933 86.4068C73.1867 86.5013 73.1867 86.5961 73.1933 86.6906C73.1036 87.1686 73.0289 87.6914 72.9392 88.1843C72.8251 88.8921 72.5716 89.5703 72.1935 90.1796C71.8153 90.7889 71.32 91.3172 70.7362 91.7339C70.1524 92.1507 69.4917 92.4475 68.7923 92.6074C68.0929 92.7672 67.3687 92.7869 66.6616 92.6652C65.9495 92.5633 65.266 92.3157 64.6539 91.9379C64.0419 91.5601 63.5144 91.0603 63.1044 90.4695C62.6827 89.8872 62.382 89.2264 62.2203 88.526C62.0586 87.8256 62.039 87.1 62.1627 86.3919C62.1627 85.9737 62.2972 85.5853 62.357 85.2119C62.357 85.1223 62.357 85.0177 62.357 84.9281C62.357 84.48 62.357 84.0319 62.357 83.5839C62.3489 83.4446 62.3489 83.3049 62.357 83.1656C62.1739 80.973 61.5647 78.8371 60.5634 76.8774V76.8774C59.9853 75.5811 59.1492 74.416 58.1059 73.453C57.0626 72.4901 55.8341 71.7495 54.4951 71.2763C51.6404 70.7386 48.7258 71.8588 45.7365 74.6071C42.1672 77.9936 39.624 82.3157 38.3977 87.079C36.8128 92.7777 36.6486 98.7777 37.9194 104.554V104.554C39.16 110.066 41.6859 113.516 45.4824 114.786C46.1113 115.019 46.7955 115.06 47.4476 114.903C48.0998 114.746 48.6904 114.398 49.1443 113.905V113.905C50.686 111.966 51.7692 109.704 52.3129 107.288C52.4209 105.038 52.3208 102.783 52.014 100.552C52.0067 100.512 52.0067 100.472 52.014 100.432C51.81 98.339 51.4856 96.2594 51.0425 94.2036C50.6012 93.2326 50.4529 92.154 50.6158 91.1C50.7787 90.0461 51.2457 89.0625 51.9596 88.2698C52.6736 87.4771 53.6034 86.9097 54.6351 86.6372C55.6669 86.3646 56.7558 86.3988 57.7684 86.7354C58.4506 86.9683 59.0773 87.3392 59.6096 87.8249C60.142 88.3106 60.5684 88.9007 60.8624 89.5584C61.5499 90.6836 62.2275 93.9347 62.8951 99.3118C62.8866 99.3512 62.8866 99.3919 62.8951 99.4313C63.4481 105.018 63.4481 108.617 62.8951 110.245C61.9597 114.407 59.9793 118.262 57.1407 121.448V121.448C55.3831 123.411 53.095 124.825 50.552 125.519C48.009 126.213 45.3194 126.158 42.8069 125.361C42.2081 127.259 41.1949 129.001 39.8405 130.46C38.486 131.92 36.8242 133.06 34.9749 133.8V133.8C31.308 135.371 27.2213 135.676 23.3615 134.666C23.212 135.025 23.0326 135.443 22.8085 135.921C22.5297 136.481 22.29 137.06 22.091 137.653C21.4702 139.844 21.3117 142.14 21.6256 144.394C21.9395 146.649 22.7189 148.815 23.9145 150.753C26.0274 154.615 29.5167 157.542 33.6895 158.953C34.3795 159.169 35.0185 159.523 35.5682 159.993C36.1178 160.463 36.5668 161.039 36.8881 161.686C37.2298 162.317 37.4367 163.011 37.4959 163.726C37.5551 164.441 37.4652 165.16 37.2319 165.838C37.0161 166.524 36.6667 167.161 36.2037 167.711C35.7408 168.262 35.1735 168.715 34.5344 169.046C33.8954 169.376 33.1972 169.577 32.4802 169.636C31.7632 169.696 31.0414 169.613 30.3565 169.393C29.4945 169.127 28.6464 168.818 27.8155 168.467C27.2476 173.904 28.8469 178.036 32.6134 180.864C38.3372 184.79 44.8887 187.345 51.7599 188.332C58.3915 189.343 65.1452 189.242 71.7435 188.034V188.034Z" fill="black"/>
</g>
<defs>
<clipPath id="clip0_108_631">
<rect width="158" height="203" fill="white"/>
</clipPath>
</defs>
</svg>
