<svg width="20" height="21" viewBox="0 0 20 21" fill="none" xmlns="http://www.w3.org/2000/svg">
<g clip-path="url(#clip0_25_1107)">
<path d="M18.8975 0.427734H1.10419C0.495021 0.427734 0.000854492 0.921901 0.000854492 1.53107V19.3244C0.000854492 19.9344 0.495021 20.4277 1.10419 20.4277H10.6825V12.6827H8.07502V9.66523H10.6825V7.43607C10.6825 4.85357 12.2609 3.44857 14.565 3.44857C15.6692 3.44857 16.6184 3.5294 16.895 3.56607V6.26607H15.2942C14.0442 6.26607 13.8009 6.8669 13.8009 7.7419V9.66773H16.7875L16.4 12.6927H13.8009V20.4277H18.8967C19.5075 20.4277 20.0009 19.9344 20.0009 19.3244V1.53107C20.0009 0.921901 19.5075 0.427734 18.8975 0.427734Z" fill="black"/>
</g>
<defs>
<clipPath id="clip0_25_1107">
<rect width="20" height="20" fill="white" transform="translate(0.000854492 0.427734)"/>
</clipPath>
</defs>
</svg>
