<svg width="20" height="21" viewBox="0 0 20 21" fill="none" xmlns="http://www.w3.org/2000/svg">
<g clip-path="url(#clip0_25_1109)">
<path fill-rule="evenodd" clip-rule="evenodd" d="M10.0009 0.427734C7.2846 0.427734 6.9446 0.440234 5.87835 0.487734C4.81335 0.537734 4.08835 0.705234 3.45085 0.952734C2.79335 1.20773 2.2346 1.55023 1.6796 2.10648C1.12335 2.66148 0.779604 3.21898 0.525854 3.87773C0.278354 4.51523 0.109604 5.24023 0.0608545 6.30523C0.0108545 7.37148 0.000854492 7.71148 0.000854492 10.4277C0.000854492 13.144 0.0133545 13.484 0.0608545 14.5502C0.110854 15.6152 0.278354 16.3415 0.525854 16.9777C0.780854 17.6352 1.12335 18.194 1.6796 18.749C2.2346 19.3052 2.7921 19.649 3.45085 19.9027C4.08835 20.1502 4.81335 20.319 5.87835 20.3677C6.9446 20.4177 7.2846 20.4277 10.0009 20.4277C12.7171 20.4277 13.0571 20.4152 14.1234 20.3677C15.1884 20.3177 15.9146 20.1502 16.5509 19.9027C17.2084 19.6477 17.7671 19.3052 18.3221 18.749C18.8784 18.194 19.2221 17.6365 19.4759 16.9777C19.7234 16.3402 19.8921 15.6152 19.9409 14.5502C19.9909 13.484 20.0009 13.144 20.0009 10.4277C20.0009 7.71148 19.9884 7.37148 19.9409 6.30523C19.8909 5.24023 19.7234 4.51398 19.4759 3.87773C19.2209 3.22023 18.8784 2.66148 18.3221 2.10648C17.7671 1.55023 17.2096 1.20648 16.5509 0.952734C15.9134 0.705234 15.1884 0.536484 14.1234 0.487734C13.0571 0.437734 12.7171 0.427734 10.0009 0.427734ZM10.0009 2.22773C12.6709 2.22773 12.9884 2.24023 14.0421 2.28773C15.0171 2.33273 15.5459 2.49523 15.8984 2.63273C16.3659 2.81398 16.6984 3.03023 17.0484 3.38023C17.3984 3.73023 17.6146 4.06273 17.7959 4.53023C17.9334 4.88273 18.0959 5.41148 18.1409 6.38648C18.1884 7.44148 18.1996 7.75773 18.1996 10.4277C18.1996 13.0977 18.1871 13.4152 18.1396 14.469C18.0946 15.444 17.9321 15.9727 17.7946 16.3252C17.6134 16.7927 17.3971 17.1252 17.0471 17.4752C16.6971 17.8252 16.3646 18.0415 15.8971 18.2227C15.5446 18.3602 15.0159 18.5227 14.0409 18.5677C12.9859 18.6152 12.6696 18.6265 9.9996 18.6265C7.3296 18.6265 7.0121 18.614 5.95835 18.5665C4.98335 18.5215 4.4546 18.359 4.1021 18.2215C3.6346 18.0402 3.3021 17.824 2.9521 17.474C2.6021 17.124 2.38585 16.7915 2.2046 16.324C2.0671 15.9715 1.9046 15.4427 1.8596 14.4677C1.81335 13.4152 1.80085 13.0977 1.80085 10.4277C1.80085 7.75773 1.81335 7.44023 1.86085 6.38648C1.90585 5.41148 2.06835 4.88273 2.20585 4.53023C2.3871 4.06273 2.60335 3.73023 2.95335 3.38023C3.30335 3.03023 3.63585 2.81398 4.10335 2.63273C4.45585 2.49523 4.9846 2.33273 5.9596 2.28773C7.01335 2.24023 7.33085 2.22773 10.0009 2.22773ZM10.0009 5.29273C7.16335 5.29273 4.86585 7.59273 4.86585 10.4277C4.86585 13.2652 7.16585 15.5627 10.0009 15.5627C12.8384 15.5627 15.1359 13.2627 15.1359 10.4277C15.1359 7.59023 12.8359 5.29273 10.0009 5.29273ZM10.0009 13.7615C8.1596 13.7615 6.6671 12.269 6.6671 10.4277C6.6671 8.58648 8.1596 7.09398 10.0009 7.09398C11.8421 7.09398 13.3346 8.58648 13.3346 10.4277C13.3346 12.269 11.8421 13.7615 10.0009 13.7615ZM16.5384 5.09023C16.5384 5.75273 16.0009 6.29023 15.3384 6.29023C14.6759 6.29023 14.1384 5.75273 14.1384 5.09023C14.1384 4.42773 14.6759 3.89023 15.3384 3.89023C16.0009 3.89023 16.5384 4.42773 16.5384 5.09023Z" fill="black"/>
</g>
<defs>
<clipPath id="clip0_25_1109">
<rect width="20" height="20" fill="white" transform="translate(0.000854492 0.427734)"/>
</clipPath>
</defs>
</svg>
