<svg width="20" height="21" viewBox="0 0 20 21" fill="none" xmlns="http://www.w3.org/2000/svg">
<g clip-path="url(#clip0_25_1114)">
<path fill-rule="evenodd" clip-rule="evenodd" d="M10 0.427734C4.47939 0.427734 0 4.90713 0 10.4277C0 15.9484 4.47939 20.4277 10 20.4277C15.5098 20.4277 20 15.9484 20 10.4277C20 4.90713 15.5098 0.427734 10 0.427734ZM16.6052 5.03728C17.7983 6.49064 18.5141 8.3453 18.5358 10.3518C18.2538 10.2976 15.4338 9.72273 12.5922 10.0807C12.5271 9.93967 12.4729 9.7878 12.4078 9.63598C12.2343 9.22386 12.0391 8.80086 11.8438 8.39955C14.9891 7.11973 16.4208 5.27589 16.6052 5.03728ZM10 1.90279C12.1692 1.90279 14.154 2.71624 15.6616 4.0503C15.5097 4.26722 14.2191 5.99173 11.1822 7.13055C9.78306 4.56005 8.23213 2.45593 7.9935 2.13055C8.63338 1.97871 9.30587 1.90279 10 1.90279ZM6.36662 2.70539C6.59437 3.00908 8.11281 5.12405 9.53363 7.6403C5.5423 8.70323 2.01736 8.68155 1.63774 8.68155C2.19089 6.03511 3.98047 3.83337 6.36662 2.70539ZM1.45336 10.4386C1.45336 10.3518 1.45336 10.265 1.45336 10.1783C1.82213 10.1891 5.96529 10.2434 10.2278 8.96355C10.4773 9.44073 10.705 9.9288 10.9219 10.4169C10.8134 10.4494 10.6941 10.482 10.5857 10.5145C6.18221 11.9353 3.83948 15.8182 3.64425 16.1435C2.2885 14.636 1.45336 12.6295 1.45336 10.4386ZM10 18.9744C8.026 18.9744 6.20391 18.3019 4.76139 17.1739C4.91323 16.8594 6.64856 13.5189 11.4642 11.8377C11.4859 11.8269 11.4968 11.8269 11.5184 11.816C12.7223 14.9288 13.2104 17.5427 13.3406 18.291C12.3102 18.7357 11.1822 18.9744 10 18.9744ZM14.7614 17.5102C14.6746 16.9895 14.2191 14.495 13.1019 11.4255C15.7809 11.0025 18.1236 11.6967 18.4165 11.7944C18.0478 14.1696 16.6811 16.2195 14.7614 17.5102Z" fill="black"/>
</g>
<defs>
<clipPath id="clip0_25_1114">
<rect width="20" height="20" fill="white" transform="translate(0 0.427734)"/>
</clipPath>
</defs>
</svg>
