<svg width="12" height="12" viewBox="0 0 12 12" fill="none" xmlns="http://www.w3.org/2000/svg">
<path d="M10.7633 4.38586C11.0789 4.06882 11.0789 3.55481 10.7633 3.23778C10.4476 2.92074 9.9357 2.92074 9.62 3.23778L5.99995 6.87325L2.37998 3.23787C2.06429 2.92083 1.55246 2.92083 1.23677 3.23787C0.921076 3.5549 0.921076 4.06891 1.23677 4.38594L5.4166 8.58355C5.4204 8.58755 5.4243 8.5915 5.42825 8.59545C5.5318 8.6995 5.6565 8.7694 5.7885 8.80515C5.7917 8.80605 5.79495 8.8069 5.7982 8.8077C6.066 8.8768 6.3621 8.8061 6.57175 8.59555C6.57695 8.59035 6.58205 8.5851 6.5871 8.5798L10.7633 4.38586Z" fill="#D8DCDE"/>
</svg>
