<svg width="16" height="10" viewBox="0 0 16 10" fill="none" xmlns="http://www.w3.org/2000/svg">
<path fill-rule="evenodd" clip-rule="evenodd" d="M0 1C0 0.447713 0.447715 0 1 0H15C15.5523 0 16 0.447713 16 1C16 1.55229 15.5523 2 15 2H1C0.447715 2 0 1.55229 0 1ZM2 5C2 4.44773 2.44771 4 3 4H13C13.5523 4 14 4.44773 14 5C14 5.55227 13.5523 6 13 6H3C2.44771 6 2 5.55227 2 5ZM5 8C4.44771 8 4 8.44773 4 9C4 9.55227 4.44771 10 5 10H11C11.5523 10 12 9.55227 12 9C12 8.44773 11.5523 8 11 8H5Z" fill="black"/>
</svg>
