<svg width="20" height="21" viewBox="0 0 20 21" fill="none" xmlns="http://www.w3.org/2000/svg">
<g clip-path="url(#clip0_25_1111)">
<path d="M9.99086 0.427734C4.47335 0.427734 0.000854492 4.90023 0.000854492 10.4169C0.000854492 14.6494 2.63252 18.2644 6.34919 19.7186C6.26169 18.9277 6.18336 17.7161 6.38336 16.8527C6.56586 16.0719 7.55502 11.8886 7.55502 11.8886C7.55502 11.8886 7.25585 11.2886 7.25585 10.4044C7.25585 9.01857 8.06169 7.97857 9.06252 7.97857C9.91585 7.97857 10.3275 8.6194 10.3275 9.38523C10.3275 10.2427 9.78335 11.5244 9.50085 12.7119C9.26335 13.7061 10.0009 14.5161 10.98 14.5161C12.7534 14.5161 14.12 12.6452 14.12 9.94357C14.12 7.5594 12.4009 5.88607 9.94669 5.88607C7.10502 5.88607 5.43919 8.02107 5.43919 10.2186C5.43919 11.0794 5.76752 12.0044 6.18002 12.5027C6.26252 12.6027 6.27336 12.6902 6.25085 12.7902C6.17585 13.1027 6.00669 13.7894 5.97252 13.9261C5.92836 14.1136 5.82919 14.1519 5.63836 14.0636C4.39252 13.4886 3.61085 11.6652 3.61085 10.1919C3.61085 7.04523 5.90085 4.14857 10.2109 4.14857C13.6759 4.14857 16.3709 6.62107 16.3709 9.91773C16.3709 13.3636 14.1984 16.1361 11.1767 16.1361C10.165 16.1361 9.21502 15.6119 8.87836 14.9869L8.25419 17.3602C8.03002 18.2311 7.41752 19.3202 7.00586 19.9819C7.94169 20.2694 8.92752 20.4277 9.96419 20.4277C15.47 20.4277 19.9517 15.9569 19.9517 10.4386C19.9517 4.9194 15.47 0.449401 9.96419 0.449401L9.99086 0.427734Z" fill="black"/>
</g>
<defs>
<clipPath id="clip0_25_1111">
<rect width="19.9508" height="20" fill="white" transform="translate(0.000854492 0.427734)"/>
</clipPath>
</defs>
</svg>
