<svg width="20" height="20" viewBox="0 0 20 20" fill="none" xmlns="http://www.w3.org/2000/svg">
<path fill-rule="evenodd" clip-rule="evenodd" d="M13.2502 15.0623C11.872 16.071 10.1722 16.6666 8.33334 16.6666C3.73096 16.6666 0 12.9358 0 8.33334C0 3.73096 3.73096 0 8.33334 0C12.9357 0 16.6666 3.73096 16.6666 8.33334C16.6666 10.1955 16.0559 11.9149 15.0238 13.3024C15.0331 13.3111 15.0422 13.32 15.0514 13.3291L19.1169 17.3946C19.6051 17.8829 19.6051 18.6743 19.1169 19.1625C18.6287 19.6506 17.8374 19.6506 17.3491 19.1625L13.2836 15.0969C13.2722 15.0855 13.2611 15.074 13.2502 15.0623ZM14.1666 8.33334C14.1666 11.555 11.555 14.1666 8.33334 14.1666C5.11167 14.1666 2.5 11.555 2.5 8.33334C2.5 5.11168 5.11167 2.5 8.33334 2.5C11.555 2.5 14.1666 5.11168 14.1666 8.33334Z" fill="#979797"/>
</svg>
