<svg width="20" height="21" viewBox="0 0 20 21" fill="none" xmlns="http://www.w3.org/2000/svg">
<path d="M19.9617 4.36357C19.2242 4.68773 18.4367 4.90857 17.6075 5.0094C18.4525 4.50023 19.1025 3.69773 19.41 2.74023C18.6175 3.20273 17.7392 3.5394 16.8042 3.7269C16.0575 2.92773 14.9933 2.42773 13.8117 2.42773C11.5475 2.42773 9.71167 4.26357 9.71167 6.52524C9.71167 6.85023 9.74917 7.16273 9.8175 7.4619C6.40917 7.30107 3.38833 5.6644 1.36667 3.19023C1.01083 3.7919 0.811667 4.49107 0.811667 5.25273C0.811667 6.67774 1.53667 7.93024 2.635 8.66607C1.9625 8.6444 1.33 8.4594 0.778333 8.15274V8.20357C0.778333 10.1911 2.18917 11.8486 4.06667 12.2261C3.7225 12.3186 3.35917 12.3686 2.98667 12.3686C2.725 12.3686 2.47417 12.3436 2.22333 12.2969C2.74917 13.9244 4.26083 15.1111 6.06 15.1444C4.66 16.2436 2.88583 16.8986 0.975 16.8986C0.65 16.8986 0.325833 16.8794 0 16.8427C1.82417 18.0044 3.97333 18.6836 6.2975 18.6836C13.8425 18.6836 17.9633 12.4369 17.9633 7.02857C17.9633 6.8544 17.9633 6.67857 17.9508 6.50357C18.7517 5.9294 19.4508 5.20357 20.0008 4.38023L19.9617 4.36357Z" fill="black"/>
</svg>
