<svg width="20" height="16" viewBox="0 0 20 16" fill="none" xmlns="http://www.w3.org/2000/svg">
<g clip-path="url(#clip0_50_236)">
<path d="M10 5.21588C8.38917 5.21588 7.08333 6.46236 7.08333 7.99997C7.08333 9.53758 8.38917 10.7841 10 10.7841C11.6108 10.7841 12.9167 9.53758 12.9167 7.99997C12.9167 6.46236 11.6108 5.21588 10 5.21588ZM10 0.840881C4.4775 0.840881 0 6.80679 0 7.99997C0 9.19315 4.4775 15.1591 10 15.1591C15.5224 15.1591 20 9.19315 20 7.99997C20 6.80679 15.5224 0.840881 10 0.840881ZM10 12.375C7.46833 12.375 5.41667 10.4166 5.41667 7.99997C5.41667 5.58338 7.46833 3.62498 10 3.62498C12.5317 3.62498 14.5833 5.58338 14.5833 7.99997C14.5833 10.4166 12.5317 12.375 10 12.375Z" fill="#979797"/>
</g>
<defs>
<clipPath id="clip0_50_236">
<rect width="20" height="15" fill="white" transform="translate(0 0.5)"/>
</clipPath>
</defs>
</svg>
