<svg width="32" height="32" viewBox="0 0 32 32" fill="none" xmlns="http://www.w3.org/2000/svg">
<path d="M26.6667 8.00001H16L13.3333 5.33334H5.33332C4.62608 5.33334 3.9478 5.61429 3.44771 6.11439C2.94761 6.61449 2.66666 7.29277 2.66666 8.00001V24C2.66666 24.7073 2.94761 25.3855 3.44771 25.8856C3.9478 26.3857 4.62608 26.6667 5.33332 26.6667H26.6667C27.3739 26.6667 28.0522 26.3857 28.5523 25.8856C29.0524 25.3855 29.3333 24.7073 29.3333 24V10.6667C29.3333 9.95943 29.0524 9.28116 28.5523 8.78106C28.0522 8.28096 27.3739 8.00001 26.6667 8.00001ZM23.92 22.6667L20 20.3733L16.08 22.6667L17.12 18.2267L13.6667 15.24L18.2133 14.8533L20 10.6667L21.7867 14.8533L26.3333 15.24L22.88 18.2267L23.92 22.6667Z" fill="black"/>
</svg>
