<svg width="24" height="17" viewBox="0 0 24 17" fill="none" xmlns="http://www.w3.org/2000/svg">
<path fill-rule="evenodd" clip-rule="evenodd" d="M17.5981 9.82499C18.4787 9.82499 18.9293 10.8809 18.3202 11.5168L14.9989 14.9837C14.6656 15.3316 14.6658 15.8804 14.9993 16.2281V16.2281C15.3534 16.5973 15.9438 16.5971 16.2976 16.2276L22.6468 9.59777C23.0171 9.21107 23.0172 8.60129 22.6469 8.21455L16.2985 1.58396C15.9443 1.21398 15.3531 1.21394 14.9988 1.58387V1.58387C14.6655 1.93186 14.6656 2.48065 14.9989 2.8286L18.3202 6.29563C18.9294 6.93152 18.4787 7.98739 17.5981 7.98739H0.986183C0.478744 7.98739 0.0673828 8.39875 0.0673828 8.90619V8.90619C0.0673828 9.41363 0.478744 9.82499 0.986183 9.82499H17.5981Z" fill="#838383"/>
</svg>
