<svg width="24" height="16" viewBox="0 0 24 16" fill="none" xmlns="http://www.w3.org/2000/svg">
<path fill-rule="evenodd" clip-rule="evenodd" d="M5.71102 8.91972C4.83043 8.91972 4.37974 9.9756 4.98891 10.6115L8.31016 14.0784C8.64344 14.4263 8.64329 14.9751 8.30982 15.3228V15.3228C7.9557 15.6921 7.3653 15.6919 7.01145 15.3224L0.662291 8.69249C0.291964 8.30579 0.291928 7.69602 0.662211 7.30927L7.01059 0.678684C7.36482 0.30871 7.95601 0.30867 8.31028 0.678595V0.678595C8.64356 1.02659 8.64352 1.57537 8.3102 1.92332L4.98889 5.39035C4.37972 6.02625 4.83042 7.08212 5.71101 7.08212H22.3229C22.8303 7.08212 23.2417 7.49348 23.2417 8.00092V8.00092C23.2417 8.50836 22.8303 8.91972 22.3229 8.91972H5.71102Z" fill="#838383"/>
</svg>
